<svg width="117" height="117" viewBox="0 0 117 117" fill="none" xmlns="http://www.w3.org/2000/svg">
<path d="M58.5493 76.53C48.4689 76.53 40.2214 68.2824 40.2214 58.202C40.2214 48.1217 48.4689 39.8741 58.5493 39.8741V0.163574C26.4754 0.163574 0.510849 26.1281 0.510849 58.202C0.510849 90.2759 26.4754 116.24 58.5493 116.24C71.9898 116.24 84.5139 111.659 94.5942 103.716L70.157 72.5589C66.7969 75.0026 62.8258 76.53 58.5493 76.53Z" fill="#EE777F"/>
<path d="M76.8773 58.202H116.588C116.588 26.1281 90.6232 0.163574 58.5493 0.163574V39.8741C68.6297 39.8741 76.8773 48.1217 76.8773 58.202Z" fill="#65BDC0"/>
<path d="M116.588 58.202H76.8772C76.8772 64.0059 74.128 69.1988 69.8515 72.5589L94.2888 103.716C108.035 93.0251 116.588 76.53 116.588 58.202Z" fill="#1D2343"/>
</svg>
